<mxfile host="65bd71144e">
    <diagram id="EM-P6hWqXpQ67DBKpDgs" name="ページ1">
        <mxGraphModel dx="2271" dy="1049" grid="1" gridSize="10" guides="1" tooltips="1" connect="1" arrows="1" fold="1" page="1" pageScale="1" pageWidth="827" pageHeight="1169" math="0" shadow="0">
            <root>
                <mxCell id="0"/>
                <mxCell id="1" parent="0"/>
                <mxCell id="3" value="&lt;b&gt;&lt;font color=&quot;#ffffff&quot;&gt;&amp;nbsp;フロントエンドアプリケーション&lt;/font&gt;&lt;/b&gt;" style="whiteSpace=wrap;html=1;align=left;fontSize=18;verticalAlign=top;fontFamily=Noto Sans JP;fontSource=https%3A%2F%2Ffonts.googleapis.com%2Fcss%3Ffamily%3DNoto%2BSans%2BJP;fillColor=none;strokeColor=#FFFFFF;" parent="1" vertex="1">
                    <mxGeometry x="-200" y="40" width="680" height="800" as="geometry"/>
                </mxCell>
                <mxCell id="4" value="&lt;font color=&quot;#ffffff&quot;&gt;API呼び出し&lt;/font&gt;" style="whiteSpace=wrap;html=1;labelBackgroundColor=none;fontFamily=Noto Sans JP;fontSource=https%3A%2F%2Ffonts.googleapis.com%2Fcss%3Ffamily%3DNoto%2BSans%2BJP;fontSize=18;fillColor=none;strokeColor=#FFFFFF;" parent="1" vertex="1">
                    <mxGeometry x="-180" y="90" width="637" height="40" as="geometry"/>
                </mxCell>
                <mxCell id="6" value="" style="edgeStyle=none;orthogonalLoop=1;jettySize=auto;html=1;fontFamily=Noto Sans JP;fontSource=https%3A%2F%2Ffonts.googleapis.com%2Fcss%3Ffamily%3DNoto%2BSans%2BJP;fontSize=18;exitX=1;exitY=0.25;exitDx=0;exitDy=0;entryX=0;entryY=0.25;entryDx=0;entryDy=0;strokeColor=#FFFFFF;" parent="1" source="4" target="130" edge="1">
                    <mxGeometry width="100" relative="1" as="geometry">
                        <mxPoint x="773" y="97" as="sourcePoint"/>
                        <mxPoint x="840" y="100" as="targetPoint"/>
                        <Array as="points"/>
                    </mxGeometry>
                </mxCell>
                <mxCell id="11" value="&lt;font&gt;/api/catalog-items&lt;/font&gt;" style="text;html=1;align=center;verticalAlign=middle;resizable=0;points=[];autosize=1;strokeColor=none;fillColor=none;fontSize=18;fontFamily=Noto Sans JP;fontColor=#FFFFFF;" parent="1" vertex="1">
                    <mxGeometry x="560" y="57" width="180" height="40" as="geometry"/>
                </mxCell>
                <mxCell id="76" value="&lt;b&gt;エラー処理実行&lt;/b&gt;" style="whiteSpace=wrap;html=1;labelBackgroundColor=none;fontFamily=Noto Sans JP;fontSource=https%3A%2F%2Ffonts.googleapis.com%2Fcss%3Ffamily%3DNoto%2BSans%2BJP;fontSize=18;verticalAlign=top;fillColor=#ffe6cc;strokeColor=#000000;" parent="1" vertex="1">
                    <mxGeometry x="-180" y="220" width="640" height="610" as="geometry"/>
                </mxCell>
                <mxCell id="80" value="&lt;font style=&quot;font-size: 18px;&quot;&gt;エラーレスポンス内のProblemDetailをもとに画面にメッセージを表示する&lt;/font&gt;" style="text;html=1;align=left;verticalAlign=middle;resizable=0;points=[];autosize=1;strokeColor=none;fillColor=none;fontSize=15;fontFamily=Noto Sans JP;fontColor=#000000;labelBackgroundColor=none;fontSource=https%3A%2F%2Ffonts.googleapis.com%2Fcss%3Ffamily%3DNoto%2BSans%2BJP;" parent="76" vertex="1">
                    <mxGeometry x="19.692307692307693" y="45" width="630" height="40" as="geometry"/>
                </mxCell>
                <mxCell id="78" value="" style="edgeStyle=none;orthogonalLoop=1;jettySize=auto;html=1;fontFamily=Noto Sans JP;fontSource=https%3A%2F%2Ffonts.googleapis.com%2Fcss%3Ffamily%3DNoto%2BSans%2BJP;fontSize=18;exitX=0.503;exitY=1.022;exitDx=0;exitDy=0;exitPerimeter=0;strokeColor=#FFFFFF;" parent="1" source="4" edge="1">
                    <mxGeometry width="100" relative="1" as="geometry">
                        <mxPoint x="234" y="130" as="sourcePoint"/>
                        <mxPoint x="140" y="220" as="targetPoint"/>
                        <Array as="points"/>
                    </mxGeometry>
                </mxCell>
                <mxCell id="79" value="&lt;b&gt;③エラーの画面出力&lt;/b&gt;" style="shape=ext;double=1;rounded=0;whiteSpace=wrap;html=1;labelBackgroundColor=none;fontFamily=Noto Sans JP;fontSource=https%3A%2F%2Ffonts.googleapis.com%2Fcss%3Ffamily%3DNoto%2BSans%2BJP;fontSize=18;fontColor=#000000;fillColor=#FFFFFF;align=left;verticalAlign=top;" parent="1" vertex="1">
                    <mxGeometry x="-160" y="315" width="597" height="505" as="geometry"/>
                </mxCell>
                <mxCell id="81" value="&lt;font&gt;400 Error&lt;/font&gt;" style="text;html=1;align=center;verticalAlign=middle;resizable=0;points=[];autosize=1;strokeColor=none;fillColor=none;fontSize=18;fontFamily=Noto Sans JP;fontColor=#FF3333;fontStyle=1" parent="1" vertex="1">
                    <mxGeometry x="690" y="652" width="100" height="40" as="geometry"/>
                </mxCell>
                <mxCell id="82" value="&lt;font style=&quot;&quot;&gt;&lt;font color=&quot;#000066&quot;&gt;&lt;b&gt;JSON ファイル&lt;/b&gt;&lt;/font&gt;&lt;br&gt;&lt;font style=&quot;font-size: 15px;&quot;&gt;&amp;nbsp;{ &lt;br&gt;&amp;nbsp; &amp;nbsp;&quot;catalogIdNotFound&quot; :&amp;nbsp;&lt;/font&gt;&lt;span style=&quot;font-family: Consolas, &amp;quot;Courier New&amp;quot;, monospace;&quot;&gt;&lt;font style=&quot;font-size: 15px;&quot;&gt;&quot;商品ID:[0] の商品はありません。&quot;&lt;br&gt;}&lt;br&gt;&lt;/font&gt;&lt;/span&gt;&lt;/font&gt;" style="shape=note;whiteSpace=wrap;html=1;backgroundOutline=1;darkOpacity=0.05;labelBackgroundColor=none;fontFamily=Noto Sans JP;fontSource=https%3A%2F%2Ffonts.googleapis.com%2Fcss%3Ffamily%3DNoto%2BSans%2BJP;fontSize=18;fontColor=#000000;fillColor=#FFFFFF;align=left;verticalAlign=top;" parent="1" vertex="1">
                    <mxGeometry x="-140" y="356" width="557" height="104" as="geometry"/>
                </mxCell>
                <mxCell id="83" value="&lt;div style=&quot;font-size: 18px;&quot;&gt;&lt;font style=&quot;font-size: 18px;&quot;&gt;&lt;span style=&quot;background-color: initial;&quot;&gt;ProblemDetailの例外IDをもとに&amp;nbsp;&lt;/span&gt;&lt;span style=&quot;background-color: initial;&quot;&gt;JSON ファイルを&lt;/span&gt;&lt;/font&gt;&lt;span style=&quot;background-color: initial;&quot;&gt;検索し、&lt;br&gt;&lt;/span&gt;&lt;span style=&quot;background-color: initial;&quot;&gt;例外値を代入してメッセージを整形する&lt;/span&gt;&lt;/div&gt;" style="text;html=1;align=left;verticalAlign=middle;resizable=0;points=[];autosize=1;strokeColor=none;fillColor=none;fontSize=15;fontFamily=Noto Sans JP;fontColor=#000000;labelBackgroundColor=none;fontSource=https%3A%2F%2Ffonts.googleapis.com%2Fcss%3Ffamily%3DNoto%2BSans%2BJP;" parent="1" vertex="1">
                    <mxGeometry x="-140" y="463" width="500" height="60" as="geometry"/>
                </mxCell>
                <mxCell id="85" value="" style="edgeStyle=elbowEdgeStyle;elbow=horizontal;endArrow=classic;html=1;curved=0;rounded=0;endSize=8;startSize=8;fontFamily=Noto Sans JP;fontSource=https%3A%2F%2Ffonts.googleapis.com%2Fcss%3Ffamily%3DNoto%2BSans%2BJP;fontSize=15;fontColor=#FF3333;exitX=0.004;exitY=0.638;exitDx=0;exitDy=0;exitPerimeter=0;entryX=1;entryY=0.75;entryDx=0;entryDy=0;strokeColor=#FFFFFF;" parent="1" source="139" target="4" edge="1">
                    <mxGeometry width="50" height="50" relative="1" as="geometry">
                        <mxPoint x="470" y="690" as="sourcePoint"/>
                        <mxPoint x="460" y="120" as="targetPoint"/>
                        <Array as="points">
                            <mxPoint x="660" y="440"/>
                            <mxPoint x="640" y="410"/>
                        </Array>
                    </mxGeometry>
                </mxCell>
                <mxCell id="87" value="" style="verticalLabelPosition=bottom;verticalAlign=top;html=1;shape=mxgraph.basic.8_point_star;labelBackgroundColor=#FFFFFF;fontFamily=Noto Sans JP;fontSource=https%3A%2F%2Ffonts.googleapis.com%2Fcss%3Ffamily%3DNoto%2BSans%2BJP;fontSize=18;fillColor=#FF3333;strokeColor=none;align=center;horizontal=0;" parent="1" vertex="1">
                    <mxGeometry x="10" y="144" width="260" height="60" as="geometry"/>
                </mxCell>
                <mxCell id="86" value="エラー発生" style="text;html=1;align=center;verticalAlign=middle;resizable=0;points=[];autosize=1;strokeColor=none;fillColor=none;fontSize=18;fontFamily=Noto Sans JP;fontColor=#FFFFFF;" parent="1" vertex="1">
                    <mxGeometry x="85" y="154" width="110" height="40" as="geometry"/>
                </mxCell>
                <mxCell id="88" value="" style="verticalLabelPosition=bottom;verticalAlign=top;html=1;shape=mxgraph.basic.frame;dx=6.43;whiteSpace=wrap;labelBackgroundColor=none;fontFamily=Noto Sans JP;fontSource=https%3A%2F%2Ffonts.googleapis.com%2Fcss%3Ffamily%3DNoto%2BSans%2BJP;fontSize=15;fontColor=#FF3333;fillColor=#808080;" parent="1" vertex="1">
                    <mxGeometry x="-110" y="531" width="480" height="245" as="geometry"/>
                </mxCell>
                <mxCell id="89" value="業務エラーが発生しました。" style="text;html=1;align=left;verticalAlign=middle;resizable=0;points=[];autosize=1;strokeColor=none;fillColor=none;fontSize=15;fontFamily=Noto Sans JP;fontColor=#FF3333;fontStyle=1" parent="1" vertex="1">
                    <mxGeometry x="-94" y="568" width="220" height="30" as="geometry"/>
                </mxCell>
                <mxCell id="90" value="&lt;u&gt;エラーメッセージ&lt;/u&gt;" style="text;html=1;align=left;verticalAlign=middle;resizable=0;points=[];autosize=1;strokeColor=none;fillColor=none;fontSize=15;fontFamily=Noto Sans JP;fontColor=#000000;fontStyle=1" parent="1" vertex="1">
                    <mxGeometry x="-86" y="597" width="140" height="30" as="geometry"/>
                </mxCell>
                <mxCell id="92" value="商品ID: 0001 の商品はありません。" style="text;html=1;align=left;verticalAlign=middle;resizable=0;points=[];autosize=1;strokeColor=none;fillColor=none;fontSize=15;fontFamily=Noto Sans JP;fontColor=#000000;fontStyle=0" parent="1" vertex="1">
                    <mxGeometry x="-81" y="623" width="260" height="30" as="geometry"/>
                </mxCell>
                <mxCell id="94" value="Dressca" style="text;html=1;align=center;verticalAlign=middle;resizable=0;points=[];autosize=1;strokeColor=none;fillColor=none;fontSize=15;fontFamily=Noto Sans JP;fontColor=#000000;fontStyle=1" parent="1" vertex="1">
                    <mxGeometry x="-106" y="538.5" width="80" height="30" as="geometry"/>
                </mxCell>
                <mxCell id="95" value="" style="line;strokeWidth=2;html=1;labelBackgroundColor=none;fontFamily=Noto Sans JP;fontSource=https%3A%2F%2Ffonts.googleapis.com%2Fcss%3Ffamily%3DNoto%2BSans%2BJP;fontSize=15;fontColor=#000000;fillColor=#808080;strokeColor=#CCCCCC;" parent="1" vertex="1">
                    <mxGeometry x="-100" y="561.5" width="460" height="13.53" as="geometry"/>
                </mxCell>
                <mxCell id="129" value="&lt;b&gt;&lt;font color=&quot;#ffffff&quot;&gt;&amp;nbsp;バックエンドアプリケーション&lt;/font&gt;&lt;/b&gt;" style="whiteSpace=wrap;html=1;align=left;fontSize=18;verticalAlign=top;fontFamily=Noto Sans JP;fontSource=https%3A%2F%2Ffonts.googleapis.com%2Fcss%3Ffamily%3DNoto%2BSans%2BJP;fillColor=none;strokeColor=#FFFFFF;" parent="1" vertex="1">
                    <mxGeometry x="840" y="40" width="680" height="800" as="geometry"/>
                </mxCell>
                <mxCell id="130" value="&lt;font color=&quot;#ffffff&quot;&gt;処理実行&lt;/font&gt;" style="whiteSpace=wrap;html=1;labelBackgroundColor=none;fontFamily=Noto Sans JP;fontSource=https%3A%2F%2Ffonts.googleapis.com%2Fcss%3Ffamily%3DNoto%2BSans%2BJP;fontSize=18;fillColor=none;strokeColor=#FFFFFF;" parent="1" vertex="1">
                    <mxGeometry x="857" y="90" width="653" height="40" as="geometry"/>
                </mxCell>
                <mxCell id="131" value="&lt;b&gt;エラー処理実行&lt;/b&gt;" style="whiteSpace=wrap;html=1;labelBackgroundColor=none;fontFamily=Noto Sans JP;fontSource=https%3A%2F%2Ffonts.googleapis.com%2Fcss%3Ffamily%3DNoto%2BSans%2BJP;fontSize=18;verticalAlign=top;fillColor=#ffe6cc;strokeColor=#000000;" parent="1" vertex="1">
                    <mxGeometry x="857" y="220" width="643" height="610" as="geometry"/>
                </mxCell>
                <mxCell id="132" value="&lt;ul&gt;&lt;li&gt;例外ID: catalogIdNotFound&lt;/li&gt;&lt;li&gt;例外値: 10(catalogId)&lt;/li&gt;&lt;/ul&gt;" style="text;strokeColor=none;fillColor=none;html=1;whiteSpace=wrap;verticalAlign=bottom;overflow=hidden;labelBackgroundColor=none;fontFamily=Noto Sans JP;fontSource=https%3A%2F%2Ffonts.googleapis.com%2Fcss%3Ffamily%3DNoto%2BSans%2BJP;fontSize=18;fontColor=#000000;" parent="131" vertex="1">
                    <mxGeometry x="73.23462414578587" y="20" width="569.7653758542141" height="90" as="geometry"/>
                </mxCell>
                <mxCell id="133" value="" style="edgeStyle=none;orthogonalLoop=1;jettySize=auto;html=1;fontFamily=Noto Sans JP;fontSource=https%3A%2F%2Ffonts.googleapis.com%2Fcss%3Ffamily%3DNoto%2BSans%2BJP;fontSize=18;exitX=0.5;exitY=1;exitDx=0;exitDy=0;strokeColor=#FFFFFF;" parent="1" source="130" target="131" edge="1">
                    <mxGeometry width="100" relative="1" as="geometry">
                        <mxPoint x="1487" y="125" as="sourcePoint"/>
                        <mxPoint x="1287" y="125" as="targetPoint"/>
                        <Array as="points"/>
                    </mxGeometry>
                </mxCell>
                <mxCell id="134" value="" style="verticalLabelPosition=bottom;verticalAlign=top;html=1;shape=mxgraph.basic.8_point_star;labelBackgroundColor=#FFFFFF;fontFamily=Noto Sans JP;fontSource=https%3A%2F%2Ffonts.googleapis.com%2Fcss%3Ffamily%3DNoto%2BSans%2BJP;fontSize=18;fillColor=#FF3333;strokeColor=none;align=center;horizontal=0;" parent="1" vertex="1">
                    <mxGeometry x="1053" y="144" width="260" height="60" as="geometry"/>
                </mxCell>
                <mxCell id="135" value="エラー発生" style="text;html=1;align=center;verticalAlign=middle;resizable=0;points=[];autosize=1;strokeColor=none;fillColor=none;fontSize=18;fontFamily=Noto Sans JP;fontColor=#FFFFFF;" parent="1" vertex="1">
                    <mxGeometry x="1128" y="154" width="110" height="40" as="geometry"/>
                </mxCell>
                <mxCell id="136" value="引数" style="text;html=1;align=center;verticalAlign=middle;resizable=0;points=[];autosize=1;strokeColor=none;fillColor=none;fontSize=18;fontFamily=Noto Sans JP;fontColor=#000000;fontStyle=5" parent="1" vertex="1">
                    <mxGeometry x="858" y="250" width="60" height="40" as="geometry"/>
                </mxCell>
                <mxCell id="137" value="&lt;b&gt;①ログの出力&lt;/b&gt;" style="shape=ext;double=1;rounded=0;whiteSpace=wrap;html=1;labelBackgroundColor=none;fontFamily=Noto Sans JP;fontSource=https%3A%2F%2Ffonts.googleapis.com%2Fcss%3Ffamily%3DNoto%2BSans%2BJP;fontSize=18;fontColor=#000000;fillColor=#FFFFFF;align=left;verticalAlign=top;" parent="1" vertex="1">
                    <mxGeometry x="907" y="320" width="573" height="200" as="geometry"/>
                </mxCell>
                <mxCell id="138" value="&lt;font style=&quot;&quot;&gt;&lt;font color=&quot;#000066&quot;&gt;&lt;b&gt;プロパティファイル&lt;/b&gt;&lt;/font&gt;&lt;br&gt;&lt;font style=&quot;font-size: 15px;&quot;&gt;&amp;nbsp;catalogIdNotFound =&amp;nbsp;&lt;/font&gt;&lt;span style=&quot;font-family: Consolas, &amp;quot;Courier New&amp;quot;, monospace;&quot;&gt;&lt;font style=&quot;font-size: 15px;&quot;&gt;商品ID:{0}の商品が見つかりませんでした。&lt;/font&gt;&lt;/span&gt;&lt;/font&gt;" style="shape=note;whiteSpace=wrap;html=1;backgroundOutline=1;darkOpacity=0.05;labelBackgroundColor=none;fontFamily=Noto Sans JP;fontSource=https%3A%2F%2Ffonts.googleapis.com%2Fcss%3Ffamily%3DNoto%2BSans%2BJP;fontSize=18;fontColor=#000000;fillColor=#FFFFFF;align=left;verticalAlign=top;" parent="1" vertex="1">
                    <mxGeometry x="918" y="360" width="552" height="67" as="geometry"/>
                </mxCell>
                <mxCell id="139" value="&lt;b&gt;②エラーレスポンスの整形&lt;/b&gt;" style="shape=ext;double=1;rounded=0;whiteSpace=wrap;html=1;labelBackgroundColor=none;fontFamily=Noto Sans JP;fontSource=https%3A%2F%2Ffonts.googleapis.com%2Fcss%3Ffamily%3DNoto%2BSans%2BJP;fontSize=18;fontColor=#000000;fillColor=#FFFFFF;align=left;verticalAlign=top;" parent="1" vertex="1">
                    <mxGeometry x="907" y="531" width="573" height="289" as="geometry"/>
                </mxCell>
                <mxCell id="140" value="ProblemDetail" style="shape=table;startSize=30;container=1;collapsible=0;childLayout=tableLayout;fixedRows=1;rowLines=0;fontStyle=1;labelBackgroundColor=none;fontFamily=Noto Sans JP;fontSource=https%3A%2F%2Ffonts.googleapis.com%2Fcss%3Ffamily%3DNoto%2BSans%2BJP;fontSize=18;fontColor=#FFFFFF;fillColor=#FF9999;" parent="1" vertex="1">
                    <mxGeometry x="922" y="598" width="542" height="195" as="geometry"/>
                </mxCell>
                <mxCell id="141" value="" style="shape=tableRow;horizontal=0;startSize=0;swimlaneHead=0;swimlaneBody=0;top=0;left=0;bottom=0;right=0;collapsible=0;dropTarget=0;fillColor=none;points=[[0,0.5],[1,0.5]];portConstraint=eastwest;labelBackgroundColor=none;fontFamily=Noto Sans JP;fontSource=https%3A%2F%2Ffonts.googleapis.com%2Fcss%3Ffamily%3DNoto%2BSans%2BJP;fontSize=18;fontColor=#000000;" parent="140" vertex="1">
                    <mxGeometry y="30" width="542" height="33" as="geometry"/>
                </mxCell>
                <mxCell id="142" value="status" style="shape=partialRectangle;html=1;whiteSpace=wrap;connectable=0;fillColor=none;top=0;left=0;bottom=0;right=0;overflow=hidden;pointerEvents=1;labelBackgroundColor=none;fontFamily=Noto Sans JP;fontSource=https%3A%2F%2Ffonts.googleapis.com%2Fcss%3Ffamily%3DNoto%2BSans%2BJP;fontSize=18;fontColor=#000000;" parent="141" vertex="1">
                    <mxGeometry width="182" height="33" as="geometry">
                        <mxRectangle width="182" height="33" as="alternateBounds"/>
                    </mxGeometry>
                </mxCell>
                <mxCell id="143" value="400" style="shape=partialRectangle;html=1;whiteSpace=wrap;connectable=0;fillColor=none;top=0;left=0;bottom=0;right=0;align=left;spacingLeft=6;overflow=hidden;labelBackgroundColor=none;fontFamily=Noto Sans JP;fontSource=https%3A%2F%2Ffonts.googleapis.com%2Fcss%3Ffamily%3DNoto%2BSans%2BJP;fontSize=18;fontColor=#000000;" parent="141" vertex="1">
                    <mxGeometry x="182" width="360" height="33" as="geometry">
                        <mxRectangle width="360" height="33" as="alternateBounds"/>
                    </mxGeometry>
                </mxCell>
                <mxCell id="144" value="" style="shape=tableRow;horizontal=0;startSize=0;swimlaneHead=0;swimlaneBody=0;top=0;left=0;bottom=0;right=0;collapsible=0;dropTarget=0;fillColor=none;points=[[0,0.5],[1,0.5]];portConstraint=eastwest;labelBackgroundColor=none;fontFamily=Noto Sans JP;fontSource=https%3A%2F%2Ffonts.googleapis.com%2Fcss%3Ffamily%3DNoto%2BSans%2BJP;fontSize=18;fontColor=#000000;" parent="140" vertex="1">
                    <mxGeometry y="63" width="542" height="33" as="geometry"/>
                </mxCell>
                <mxCell id="145" value="title" style="shape=partialRectangle;html=1;whiteSpace=wrap;connectable=0;fillColor=none;top=0;left=0;bottom=0;right=0;overflow=hidden;labelBackgroundColor=none;fontFamily=Noto Sans JP;fontSource=https%3A%2F%2Ffonts.googleapis.com%2Fcss%3Ffamily%3DNoto%2BSans%2BJP;fontSize=18;fontColor=#000000;" parent="144" vertex="1">
                    <mxGeometry width="182" height="33" as="geometry">
                        <mxRectangle width="182" height="33" as="alternateBounds"/>
                    </mxGeometry>
                </mxCell>
                <mxCell id="146" value="業務エラーが発生しました。" style="shape=partialRectangle;html=1;whiteSpace=wrap;connectable=0;fillColor=none;top=0;left=0;bottom=0;right=0;align=left;spacingLeft=6;overflow=hidden;labelBackgroundColor=none;fontFamily=Noto Sans JP;fontSource=https%3A%2F%2Ffonts.googleapis.com%2Fcss%3Ffamily%3DNoto%2BSans%2BJP;fontSize=18;fontColor=#000000;" parent="144" vertex="1">
                    <mxGeometry x="182" width="360" height="33" as="geometry">
                        <mxRectangle width="360" height="33" as="alternateBounds"/>
                    </mxGeometry>
                </mxCell>
                <mxCell id="147" value="" style="shape=tableRow;horizontal=0;startSize=0;swimlaneHead=0;swimlaneBody=0;top=0;left=0;bottom=0;right=0;collapsible=0;dropTarget=0;fillColor=none;points=[[0,0.5],[1,0.5]];portConstraint=eastwest;labelBackgroundColor=none;fontFamily=Noto Sans JP;fontSource=https%3A%2F%2Ffonts.googleapis.com%2Fcss%3Ffamily%3DNoto%2BSans%2BJP;fontSize=18;fontColor=#000000;" parent="140" vertex="1">
                    <mxGeometry y="96" width="542" height="33" as="geometry"/>
                </mxCell>
                <mxCell id="148" value="type" style="shape=partialRectangle;html=1;whiteSpace=wrap;connectable=0;fillColor=none;top=0;left=0;bottom=0;right=0;overflow=hidden;labelBackgroundColor=none;fontFamily=Noto Sans JP;fontSource=https%3A%2F%2Ffonts.googleapis.com%2Fcss%3Ffamily%3DNoto%2BSans%2BJP;fontSize=18;fontColor=#000000;" parent="147" vertex="1">
                    <mxGeometry width="182" height="33" as="geometry">
                        <mxRectangle width="182" height="33" as="alternateBounds"/>
                    </mxGeometry>
                </mxCell>
                <mxCell id="149" value="http://hoge.com/error/catalogNotFound" style="shape=partialRectangle;html=1;whiteSpace=wrap;connectable=0;fillColor=none;top=0;left=0;bottom=0;right=0;align=left;spacingLeft=6;overflow=hidden;labelBackgroundColor=none;fontFamily=Noto Sans JP;fontSource=https%3A%2F%2Ffonts.googleapis.com%2Fcss%3Ffamily%3DNoto%2BSans%2BJP;fontSize=18;fontColor=#000000;" parent="147" vertex="1">
                    <mxGeometry x="182" width="360" height="33" as="geometry">
                        <mxRectangle width="360" height="33" as="alternateBounds"/>
                    </mxGeometry>
                </mxCell>
                <mxCell id="150" value="" style="shape=tableRow;horizontal=0;startSize=0;swimlaneHead=0;swimlaneBody=0;top=0;left=0;bottom=0;right=0;collapsible=0;dropTarget=0;fillColor=none;points=[[0,0.5],[1,0.5]];portConstraint=eastwest;labelBackgroundColor=none;fontFamily=Noto Sans JP;fontSource=https%3A%2F%2Ffonts.googleapis.com%2Fcss%3Ffamily%3DNoto%2BSans%2BJP;fontSize=18;fontColor=#000000;" parent="140" vertex="1">
                    <mxGeometry y="129" width="542" height="33" as="geometry"/>
                </mxCell>
                <mxCell id="151" value="exceptionId" style="shape=partialRectangle;html=1;whiteSpace=wrap;connectable=0;fillColor=none;top=0;left=0;bottom=0;right=0;overflow=hidden;labelBackgroundColor=none;fontFamily=Noto Sans JP;fontSource=https%3A%2F%2Ffonts.googleapis.com%2Fcss%3Ffamily%3DNoto%2BSans%2BJP;fontSize=18;fontColor=#000000;" parent="150" vertex="1">
                    <mxGeometry width="182" height="33" as="geometry">
                        <mxRectangle width="182" height="33" as="alternateBounds"/>
                    </mxGeometry>
                </mxCell>
                <mxCell id="152" value="catalogIdNotFound" style="shape=partialRectangle;html=1;whiteSpace=wrap;connectable=0;fillColor=none;top=0;left=0;bottom=0;right=0;align=left;spacingLeft=6;overflow=hidden;labelBackgroundColor=none;fontFamily=Noto Sans JP;fontSource=https%3A%2F%2Ffonts.googleapis.com%2Fcss%3Ffamily%3DNoto%2BSans%2BJP;fontSize=18;fontColor=#000000;" parent="150" vertex="1">
                    <mxGeometry x="182" width="360" height="33" as="geometry">
                        <mxRectangle width="360" height="33" as="alternateBounds"/>
                    </mxGeometry>
                </mxCell>
                <mxCell id="153" value="" style="shape=tableRow;horizontal=0;startSize=0;swimlaneHead=0;swimlaneBody=0;top=0;left=0;bottom=0;right=0;collapsible=0;dropTarget=0;fillColor=none;points=[[0,0.5],[1,0.5]];portConstraint=eastwest;labelBackgroundColor=none;fontFamily=Noto Sans JP;fontSource=https%3A%2F%2Ffonts.googleapis.com%2Fcss%3Ffamily%3DNoto%2BSans%2BJP;fontSize=18;fontColor=#000000;" parent="140" vertex="1">
                    <mxGeometry y="162" width="542" height="33" as="geometry"/>
                </mxCell>
                <mxCell id="154" value="exceptionValues" style="shape=partialRectangle;html=1;whiteSpace=wrap;connectable=0;fillColor=none;top=0;left=0;bottom=0;right=0;overflow=hidden;labelBackgroundColor=none;fontFamily=Noto Sans JP;fontSource=https%3A%2F%2Ffonts.googleapis.com%2Fcss%3Ffamily%3DNoto%2BSans%2BJP;fontSize=18;fontColor=#000000;" parent="153" vertex="1">
                    <mxGeometry width="182" height="33" as="geometry">
                        <mxRectangle width="182" height="33" as="alternateBounds"/>
                    </mxGeometry>
                </mxCell>
                <mxCell id="155" value="10" style="shape=partialRectangle;html=1;whiteSpace=wrap;connectable=0;fillColor=none;top=0;left=0;bottom=0;right=0;align=left;spacingLeft=6;overflow=hidden;labelBackgroundColor=none;fontFamily=Noto Sans JP;fontSource=https%3A%2F%2Ffonts.googleapis.com%2Fcss%3Ffamily%3DNoto%2BSans%2BJP;fontSize=18;fontColor=#000000;" parent="153" vertex="1">
                    <mxGeometry x="182" width="360" height="33" as="geometry">
                        <mxRectangle width="360" height="33" as="alternateBounds"/>
                    </mxGeometry>
                </mxCell>
                <mxCell id="156" value="" style="edgeStyle=elbowEdgeStyle;elbow=vertical;endArrow=classic;html=1;curved=0;rounded=0;endSize=8;startSize=8;fontFamily=Noto Sans JP;fontSource=https%3A%2F%2Ffonts.googleapis.com%2Fcss%3Ffamily%3DNoto%2BSans%2BJP;fontSize=18;fontColor=#000000;entryX=0;entryY=0.5;entryDx=0;entryDy=0;" parent="1" target="137" edge="1">
                    <mxGeometry width="50" height="50" relative="1" as="geometry">
                        <mxPoint x="887" y="300" as="sourcePoint"/>
                        <mxPoint x="1407" y="400" as="targetPoint"/>
                        <Array as="points">
                            <mxPoint x="900" y="420"/>
                        </Array>
                    </mxGeometry>
                </mxCell>
                <mxCell id="157" value="" style="edgeStyle=elbowEdgeStyle;elbow=vertical;endArrow=classic;html=1;curved=0;rounded=0;endSize=8;startSize=8;fontFamily=Noto Sans JP;fontSource=https%3A%2F%2Ffonts.googleapis.com%2Fcss%3Ffamily%3DNoto%2BSans%2BJP;fontSize=18;fontColor=#000000;entryX=0;entryY=0.5;entryDx=0;entryDy=0;exitX=0.5;exitY=1.143;exitDx=0;exitDy=0;exitPerimeter=0;" parent="1" edge="1">
                    <mxGeometry width="50" height="50" relative="1" as="geometry">
                        <mxPoint x="887" y="296.72" as="sourcePoint"/>
                        <mxPoint x="906" y="690.9999999999998" as="targetPoint"/>
                        <Array as="points">
                            <mxPoint x="876" y="690"/>
                        </Array>
                    </mxGeometry>
                </mxCell>
                <mxCell id="158" value="例外IDと例外値をエラーレスポンスに含める" style="text;html=1;align=center;verticalAlign=middle;resizable=0;points=[];autosize=1;strokeColor=none;fillColor=none;fontSize=15;fontFamily=Noto Sans JP;fontColor=#000000;labelBackgroundColor=none;fontSource=https%3A%2F%2Ffonts.googleapis.com%2Fcss%3Ffamily%3DNoto%2BSans%2BJP;" parent="1" vertex="1">
                    <mxGeometry x="929" y="564" width="320" height="30" as="geometry"/>
                </mxCell>
                <mxCell id="159" value="例外IDをもとにプロパティファイルを検索し&lt;span style=&quot;background-color: initial; text-align: left;&quot;&gt;例外値を代入してログを出力する&lt;/span&gt;" style="text;html=1;align=center;verticalAlign=middle;resizable=0;points=[];autosize=1;strokeColor=none;fillColor=none;fontSize=15;fontFamily=Noto Sans JP;fontColor=#000000;labelBackgroundColor=none;fontSource=https%3A%2F%2Ffonts.googleapis.com%2Fcss%3Ffamily%3DNoto%2BSans%2BJP;" parent="1" vertex="1">
                    <mxGeometry x="917" y="433" width="550" height="30" as="geometry"/>
                </mxCell>
                <mxCell id="160" value="&lt;b&gt;2024/11/20 19:31:03 商品ID:0001の商品が見つかりませんでした。&lt;/b&gt;" style="rounded=1;whiteSpace=wrap;html=1;labelBackgroundColor=none;fontFamily=Noto Sans JP;fontSource=https%3A%2F%2Ffonts.googleapis.com%2Fcss%3Ffamily%3DNoto%2BSans%2BJP;fontSize=15;fontColor=#FFFFFF;fillColor=#000000;strokeColor=none;align=left;" parent="1" vertex="1">
                    <mxGeometry x="922.5" y="466" width="547.5" height="36" as="geometry"/>
                </mxCell>
                <mxCell id="161" value="400" style="text;html=1;align=left;verticalAlign=middle;resizable=0;points=[];autosize=1;strokeColor=none;fillColor=none;fontSize=15;fontFamily=Noto Sans JP;fontColor=#000000;fontStyle=0" parent="1" vertex="1">
                    <mxGeometry x="-81" y="679" width="50" height="30" as="geometry"/>
                </mxCell>
                <mxCell id="162" value="&lt;u style=&quot;&quot;&gt;&lt;font style=&quot;&quot;&gt;ステータスコード&lt;/font&gt;&lt;/u&gt;" style="text;html=1;align=left;verticalAlign=middle;resizable=0;points=[];autosize=1;strokeColor=none;fillColor=none;fontSize=15;fontFamily=Noto Sans JP;fontColor=#000000;fontStyle=1" parent="1" vertex="1">
                    <mxGeometry x="-86" y="653" width="140" height="30" as="geometry"/>
                </mxCell>
                <mxCell id="163" value="&lt;u style=&quot;&quot;&gt;&lt;font style=&quot;&quot;&gt;エラー詳細 URL&lt;/font&gt;&lt;/u&gt;" style="text;html=1;align=left;verticalAlign=middle;resizable=0;points=[];autosize=1;strokeColor=none;fillColor=none;fontSize=15;fontFamily=Noto Sans JP;fontColor=#000000;fontStyle=1" parent="1" vertex="1">
                    <mxGeometry x="-86" y="710" width="130" height="30" as="geometry"/>
                </mxCell>
                <mxCell id="164" value="https://hoge.com/error/catalogNotFound" style="text;html=1;align=left;verticalAlign=middle;resizable=0;points=[];autosize=1;strokeColor=none;fillColor=none;fontSize=15;fontFamily=Noto Sans JP;fontColor=#000000;fontStyle=0" parent="1" vertex="1">
                    <mxGeometry x="-81" y="736" width="310" height="30" as="geometry"/>
                </mxCell>
            </root>
        </mxGraphModel>
    </diagram>
</mxfile>